<mxfile host="app.diagrams.net" modified="2023-09-27T03:51:04.652Z" agent="Mozilla/5.0 (Windows NT 10.0; Win64; x64) AppleWebKit/537.36 (KHTML, like Gecko) Chrome/116.0.0.0 Safari/537.36 OPR/102.0.0.0" etag="Nvx8aT_8U--8JYSjY0dZ" version="21.8.2" type="google">
  <diagram id="R2lEEEUBdFMjLlhIrx00" name="Page-1">
    <mxGraphModel grid="1" page="1" gridSize="10" guides="1" tooltips="1" connect="1" arrows="1" fold="1" pageScale="1" pageWidth="850" pageHeight="1100" math="0" shadow="0" extFonts="Permanent Marker^https://fonts.googleapis.com/css?family=Permanent+Marker">
      <root>
        <mxCell id="0" />
        <mxCell id="1" parent="0" />
        <mxCell id="gkXuOz1TAqJlycuNWTd--1" value="Menu" style="shape=ext;margin=3;double=1;whiteSpace=wrap;html=1;align=center;fillColor=#dae8fc;strokeColor=#6c8ebf;" vertex="1" parent="1">
          <mxGeometry x="330" y="50" width="100" height="40" as="geometry" />
        </mxCell>
        <mxCell id="gkXuOz1TAqJlycuNWTd--2" value="" style="endArrow=none;html=1;rounded=0;exitX=0.57;exitY=0.975;exitDx=0;exitDy=0;exitPerimeter=0;entryX=0.5;entryY=0;entryDx=0;entryDy=0;" edge="1" parent="1" source="gkXuOz1TAqJlycuNWTd--1" target="gkXuOz1TAqJlycuNWTd--30">
          <mxGeometry relative="1" as="geometry">
            <mxPoint x="340" y="250" as="sourcePoint" />
            <mxPoint x="130" y="120" as="targetPoint" />
          </mxGeometry>
        </mxCell>
        <mxCell id="gkXuOz1TAqJlycuNWTd--30" value="Gofres Belgas" style="whiteSpace=wrap;html=1;align=center;fillColor=#f8cecc;strokeColor=#b85450;" vertex="1" parent="1">
          <mxGeometry x="20" y="80" width="100" height="40" as="geometry" />
        </mxCell>
        <mxCell id="gkXuOz1TAqJlycuNWTd--31" value="Precio" style="whiteSpace=wrap;html=1;align=center;fillColor=#d5e8d4;strokeColor=#82b366;" vertex="1" parent="1">
          <mxGeometry x="-110" y="170" width="100" height="40" as="geometry" />
        </mxCell>
        <mxCell id="gkXuOz1TAqJlycuNWTd--32" value="" style="endArrow=none;html=1;rounded=0;entryX=0.47;entryY=1.175;entryDx=0;entryDy=0;entryPerimeter=0;" edge="1" parent="1" source="gkXuOz1TAqJlycuNWTd--31" target="gkXuOz1TAqJlycuNWTd--30">
          <mxGeometry relative="1" as="geometry">
            <mxPoint x="-40" y="250" as="sourcePoint" />
            <mxPoint x="120" y="250" as="targetPoint" />
          </mxGeometry>
        </mxCell>
        <mxCell id="gkXuOz1TAqJlycuNWTd--33" value="Descripcion" style="whiteSpace=wrap;html=1;align=center;fillColor=#d5e8d4;strokeColor=#82b366;" vertex="1" parent="1">
          <mxGeometry y="220" width="100" height="40" as="geometry" />
        </mxCell>
        <mxCell id="gkXuOz1TAqJlycuNWTd--34" value="" style="endArrow=none;html=1;rounded=0;entryX=0.5;entryY=1;entryDx=0;entryDy=0;exitX=0.5;exitY=0;exitDx=0;exitDy=0;" edge="1" parent="1" source="gkXuOz1TAqJlycuNWTd--33" target="gkXuOz1TAqJlycuNWTd--30">
          <mxGeometry relative="1" as="geometry">
            <mxPoint x="-40" y="250" as="sourcePoint" />
            <mxPoint x="120" y="250" as="targetPoint" />
          </mxGeometry>
        </mxCell>
        <mxCell id="gkXuOz1TAqJlycuNWTd--35" value="Calorias" style="whiteSpace=wrap;html=1;align=center;fillColor=#d5e8d4;strokeColor=#82b366;" vertex="1" parent="1">
          <mxGeometry x="100" y="180" width="100" height="40" as="geometry" />
        </mxCell>
        <mxCell id="gkXuOz1TAqJlycuNWTd--36" value="" style="endArrow=none;html=1;rounded=0;entryX=1;entryY=1;entryDx=0;entryDy=0;exitX=0.5;exitY=0;exitDx=0;exitDy=0;" edge="1" parent="1" source="gkXuOz1TAqJlycuNWTd--35" target="gkXuOz1TAqJlycuNWTd--30">
          <mxGeometry relative="1" as="geometry">
            <mxPoint x="-40" y="250" as="sourcePoint" />
            <mxPoint x="120" y="250" as="targetPoint" />
          </mxGeometry>
        </mxCell>
        <mxCell id="gkXuOz1TAqJlycuNWTd--37" value="Gofres Belgas con fresa" style="whiteSpace=wrap;html=1;align=center;fillColor=#f8cecc;strokeColor=#b85450;" vertex="1" parent="1">
          <mxGeometry x="230" y="210" width="100" height="40" as="geometry" />
        </mxCell>
        <mxCell id="gkXuOz1TAqJlycuNWTd--38" value="" style="endArrow=none;html=1;rounded=0;entryX=0.5;entryY=0;entryDx=0;entryDy=0;" edge="1" parent="1" target="gkXuOz1TAqJlycuNWTd--37">
          <mxGeometry relative="1" as="geometry">
            <mxPoint x="380" y="90" as="sourcePoint" />
            <mxPoint x="530" y="370" as="targetPoint" />
          </mxGeometry>
        </mxCell>
        <mxCell id="gkXuOz1TAqJlycuNWTd--40" value="" style="endArrow=none;html=1;rounded=0;exitX=1;exitY=1;exitDx=0;exitDy=0;" edge="1" parent="1" source="gkXuOz1TAqJlycuNWTd--37" target="gkXuOz1TAqJlycuNWTd--41">
          <mxGeometry relative="1" as="geometry">
            <mxPoint x="240" y="250" as="sourcePoint" />
            <mxPoint x="400" y="250" as="targetPoint" />
          </mxGeometry>
        </mxCell>
        <mxCell id="gkXuOz1TAqJlycuNWTd--41" value="Calorias" style="whiteSpace=wrap;html=1;align=center;fillColor=#d5e8d4;strokeColor=#82b366;" vertex="1" parent="1">
          <mxGeometry x="325" y="310" width="100" height="40" as="geometry" />
        </mxCell>
        <mxCell id="gkXuOz1TAqJlycuNWTd--42" value="Descripcion" style="whiteSpace=wrap;html=1;align=center;fillColor=#d5e8d4;strokeColor=#82b366;" vertex="1" parent="1">
          <mxGeometry x="190" y="350" width="100" height="40" as="geometry" />
        </mxCell>
        <mxCell id="gkXuOz1TAqJlycuNWTd--43" value="Precio" style="whiteSpace=wrap;html=1;align=center;fillColor=#d5e8d4;strokeColor=#82b366;" vertex="1" parent="1">
          <mxGeometry x="80" y="300" width="100" height="40" as="geometry" />
        </mxCell>
        <mxCell id="gkXuOz1TAqJlycuNWTd--44" value="" style="endArrow=none;html=1;rounded=0;entryX=0.58;entryY=1;entryDx=0;entryDy=0;entryPerimeter=0;exitX=0.5;exitY=0;exitDx=0;exitDy=0;" edge="1" parent="1" source="gkXuOz1TAqJlycuNWTd--42" target="gkXuOz1TAqJlycuNWTd--37">
          <mxGeometry relative="1" as="geometry">
            <mxPoint x="240" y="250" as="sourcePoint" />
            <mxPoint x="400" y="250" as="targetPoint" />
          </mxGeometry>
        </mxCell>
        <mxCell id="gkXuOz1TAqJlycuNWTd--47" value="" style="endArrow=none;html=1;rounded=0;exitX=0.5;exitY=0;exitDx=0;exitDy=0;entryX=0;entryY=1;entryDx=0;entryDy=0;" edge="1" parent="1" source="gkXuOz1TAqJlycuNWTd--43" target="gkXuOz1TAqJlycuNWTd--37">
          <mxGeometry relative="1" as="geometry">
            <mxPoint x="200" y="220" as="sourcePoint" />
            <mxPoint x="340" y="190" as="targetPoint" />
          </mxGeometry>
        </mxCell>
        <mxCell id="gkXuOz1TAqJlycuNWTd--49" value="Gofres Belgas con frutas del bosque" style="whiteSpace=wrap;html=1;align=center;fillColor=#f8cecc;strokeColor=#b85450;" vertex="1" parent="1">
          <mxGeometry x="520" y="160" width="100" height="40" as="geometry" />
        </mxCell>
        <mxCell id="gkXuOz1TAqJlycuNWTd--50" value="" style="endArrow=none;html=1;rounded=0;exitX=1;exitY=0.75;exitDx=0;exitDy=0;entryX=0;entryY=0;entryDx=0;entryDy=0;" edge="1" parent="1" source="gkXuOz1TAqJlycuNWTd--1" target="gkXuOz1TAqJlycuNWTd--49">
          <mxGeometry relative="1" as="geometry">
            <mxPoint x="560" y="250" as="sourcePoint" />
            <mxPoint x="720" y="250" as="targetPoint" />
          </mxGeometry>
        </mxCell>
        <mxCell id="gkXuOz1TAqJlycuNWTd--51" value="Precio" style="whiteSpace=wrap;html=1;align=center;fillColor=#d5e8d4;strokeColor=#82b366;" vertex="1" parent="1">
          <mxGeometry x="420" y="250" width="100" height="40" as="geometry" />
        </mxCell>
        <mxCell id="gkXuOz1TAqJlycuNWTd--52" value="Descripcion" style="whiteSpace=wrap;html=1;align=center;fillColor=#d5e8d4;strokeColor=#82b366;" vertex="1" parent="1">
          <mxGeometry x="540" y="280" width="100" height="40" as="geometry" />
        </mxCell>
        <mxCell id="gkXuOz1TAqJlycuNWTd--53" value="Calorias" style="whiteSpace=wrap;html=1;align=center;fillColor=#d5e8d4;strokeColor=#82b366;" vertex="1" parent="1">
          <mxGeometry x="660" y="240" width="100" height="40" as="geometry" />
        </mxCell>
        <mxCell id="gkXuOz1TAqJlycuNWTd--54" value="" style="endArrow=none;html=1;rounded=0;exitX=0.5;exitY=0;exitDx=0;exitDy=0;entryX=0;entryY=1;entryDx=0;entryDy=0;" edge="1" parent="1" source="gkXuOz1TAqJlycuNWTd--51" target="gkXuOz1TAqJlycuNWTd--49">
          <mxGeometry relative="1" as="geometry">
            <mxPoint x="560" y="250" as="sourcePoint" />
            <mxPoint x="720" y="250" as="targetPoint" />
          </mxGeometry>
        </mxCell>
        <mxCell id="gkXuOz1TAqJlycuNWTd--55" value="" style="endArrow=none;html=1;rounded=0;exitX=0.5;exitY=1;exitDx=0;exitDy=0;entryX=0.5;entryY=0;entryDx=0;entryDy=0;" edge="1" parent="1" source="gkXuOz1TAqJlycuNWTd--49" target="gkXuOz1TAqJlycuNWTd--52">
          <mxGeometry relative="1" as="geometry">
            <mxPoint x="560" y="250" as="sourcePoint" />
            <mxPoint x="680" y="250" as="targetPoint" />
          </mxGeometry>
        </mxCell>
        <mxCell id="gkXuOz1TAqJlycuNWTd--56" value="" style="endArrow=none;html=1;rounded=0;exitX=1;exitY=1;exitDx=0;exitDy=0;entryX=0;entryY=0;entryDx=0;entryDy=0;" edge="1" parent="1" source="gkXuOz1TAqJlycuNWTd--49" target="gkXuOz1TAqJlycuNWTd--53">
          <mxGeometry relative="1" as="geometry">
            <mxPoint x="560" y="250" as="sourcePoint" />
            <mxPoint x="720" y="172" as="targetPoint" />
          </mxGeometry>
        </mxCell>
        <mxCell id="gkXuOz1TAqJlycuNWTd--57" value="Tostadas Francesa" style="whiteSpace=wrap;html=1;align=center;fillColor=#f8cecc;strokeColor=#b85450;" vertex="1" parent="1">
          <mxGeometry x="650" y="10" width="100" height="40" as="geometry" />
        </mxCell>
        <mxCell id="GbskJlC3cEKNhSF550ly-1" value="" style="endArrow=none;html=1;rounded=0;exitX=1;exitY=0.5;exitDx=0;exitDy=0;entryX=0;entryY=0.5;entryDx=0;entryDy=0;" edge="1" parent="1" source="gkXuOz1TAqJlycuNWTd--1" target="gkXuOz1TAqJlycuNWTd--57">
          <mxGeometry relative="1" as="geometry">
            <mxPoint x="350" y="250" as="sourcePoint" />
            <mxPoint x="510" y="250" as="targetPoint" />
          </mxGeometry>
        </mxCell>
        <mxCell id="GbskJlC3cEKNhSF550ly-2" value="Calorias" style="whiteSpace=wrap;html=1;align=center;fillColor=#d5e8d4;strokeColor=#82b366;" vertex="1" parent="1">
          <mxGeometry x="830" y="10" width="100" height="40" as="geometry" />
        </mxCell>
        <mxCell id="GbskJlC3cEKNhSF550ly-3" value="Precio" style="whiteSpace=wrap;html=1;align=center;fillColor=#d5e8d4;strokeColor=#82b366;" vertex="1" parent="1">
          <mxGeometry x="670" y="110" width="100" height="40" as="geometry" />
        </mxCell>
        <mxCell id="GbskJlC3cEKNhSF550ly-4" value="Descripcion" style="whiteSpace=wrap;html=1;align=center;fillColor=#d5e8d4;strokeColor=#82b366;" vertex="1" parent="1">
          <mxGeometry x="800" y="110" width="100" height="40" as="geometry" />
        </mxCell>
        <mxCell id="GbskJlC3cEKNhSF550ly-6" value="" style="endArrow=none;html=1;rounded=0;exitX=0.5;exitY=1;exitDx=0;exitDy=0;entryX=0.5;entryY=0;entryDx=0;entryDy=0;" edge="1" parent="1" source="gkXuOz1TAqJlycuNWTd--57" target="GbskJlC3cEKNhSF550ly-3">
          <mxGeometry relative="1" as="geometry">
            <mxPoint x="540" y="250" as="sourcePoint" />
            <mxPoint x="700" y="250" as="targetPoint" />
          </mxGeometry>
        </mxCell>
        <mxCell id="GbskJlC3cEKNhSF550ly-7" value="" style="endArrow=none;html=1;rounded=0;exitX=1;exitY=1;exitDx=0;exitDy=0;entryX=0.4;entryY=0.075;entryDx=0;entryDy=0;entryPerimeter=0;" edge="1" parent="1" source="gkXuOz1TAqJlycuNWTd--57" target="GbskJlC3cEKNhSF550ly-4">
          <mxGeometry relative="1" as="geometry">
            <mxPoint x="540" y="250" as="sourcePoint" />
            <mxPoint x="700" y="250" as="targetPoint" />
          </mxGeometry>
        </mxCell>
        <mxCell id="GbskJlC3cEKNhSF550ly-8" value="" style="endArrow=none;html=1;rounded=0;exitX=1;exitY=0.5;exitDx=0;exitDy=0;entryX=0;entryY=0.5;entryDx=0;entryDy=0;" edge="1" parent="1" source="gkXuOz1TAqJlycuNWTd--57" target="GbskJlC3cEKNhSF550ly-2">
          <mxGeometry relative="1" as="geometry">
            <mxPoint x="540" y="120" as="sourcePoint" />
            <mxPoint x="700" y="120" as="targetPoint" />
          </mxGeometry>
        </mxCell>
        <mxCell id="GbskJlC3cEKNhSF550ly-9" value="Desayuno de la casa&amp;nbsp;" style="whiteSpace=wrap;html=1;align=center;fillColor=#f8cecc;strokeColor=#b85450;" vertex="1" parent="1">
          <mxGeometry x="190" y="-30" width="100" height="40" as="geometry" />
        </mxCell>
        <mxCell id="GbskJlC3cEKNhSF550ly-10" value="" style="endArrow=none;html=1;rounded=0;entryX=0;entryY=0.5;entryDx=0;entryDy=0;exitX=1;exitY=0.5;exitDx=0;exitDy=0;" edge="1" parent="1" source="GbskJlC3cEKNhSF550ly-9" target="gkXuOz1TAqJlycuNWTd--1">
          <mxGeometry relative="1" as="geometry">
            <mxPoint x="260" y="-30" as="sourcePoint" />
            <mxPoint x="390" y="120" as="targetPoint" />
          </mxGeometry>
        </mxCell>
        <mxCell id="GbskJlC3cEKNhSF550ly-11" value="Precio" style="whiteSpace=wrap;html=1;align=center;fillColor=#d5e8d4;strokeColor=#82b366;" vertex="1" parent="1">
          <mxGeometry x="280" y="-130" width="100" height="40" as="geometry" />
        </mxCell>
        <mxCell id="GbskJlC3cEKNhSF550ly-12" value="Descripcion" style="whiteSpace=wrap;html=1;align=center;fillColor=#d5e8d4;strokeColor=#82b366;" vertex="1" parent="1">
          <mxGeometry x="110" y="-130" width="100" height="40" as="geometry" />
        </mxCell>
        <mxCell id="GbskJlC3cEKNhSF550ly-13" value="Calorias" style="whiteSpace=wrap;html=1;align=center;fillColor=#d5e8d4;strokeColor=#82b366;" vertex="1" parent="1">
          <mxGeometry x="-10" y="-50" width="100" height="40" as="geometry" />
        </mxCell>
        <mxCell id="GbskJlC3cEKNhSF550ly-14" value="" style="endArrow=none;html=1;rounded=0;exitX=1;exitY=0.5;exitDx=0;exitDy=0;entryX=0;entryY=0.5;entryDx=0;entryDy=0;" edge="1" parent="1" source="GbskJlC3cEKNhSF550ly-13" target="GbskJlC3cEKNhSF550ly-9">
          <mxGeometry relative="1" as="geometry">
            <mxPoint x="230" y="120" as="sourcePoint" />
            <mxPoint x="390" y="120" as="targetPoint" />
          </mxGeometry>
        </mxCell>
        <mxCell id="GbskJlC3cEKNhSF550ly-15" value="" style="endArrow=none;html=1;rounded=0;dashed=1;dashPattern=1 2;exitX=0.5;exitY=1;exitDx=0;exitDy=0;entryX=0.5;entryY=0;entryDx=0;entryDy=0;" edge="1" parent="1" source="GbskJlC3cEKNhSF550ly-12" target="GbskJlC3cEKNhSF550ly-9">
          <mxGeometry relative="1" as="geometry">
            <mxPoint x="230" y="120" as="sourcePoint" />
            <mxPoint x="390" y="120" as="targetPoint" />
          </mxGeometry>
        </mxCell>
        <mxCell id="GbskJlC3cEKNhSF550ly-17" value="" style="endArrow=none;html=1;rounded=0;entryX=0.5;entryY=1;entryDx=0;entryDy=0;exitX=1;exitY=0.75;exitDx=0;exitDy=0;" edge="1" parent="1" source="GbskJlC3cEKNhSF550ly-9" target="GbskJlC3cEKNhSF550ly-11">
          <mxGeometry relative="1" as="geometry">
            <mxPoint x="230" y="120" as="sourcePoint" />
            <mxPoint x="390" y="120" as="targetPoint" />
          </mxGeometry>
        </mxCell>
      </root>
    </mxGraphModel>
  </diagram>
</mxfile>
